<?xml version="1.0" encoding="UTF-8" standalone="no"?>
<svg
   xmlns:dc="http://purl.org/dc/elements/1.1/"
   xmlns:cc="http://creativecommons.org/ns#"
   xmlns:rdf="http://www.w3.org/1999/02/22-rdf-syntax-ns#"
   xmlns:svg="http://www.w3.org/2000/svg"
   xmlns="http://www.w3.org/2000/svg"
   xmlns:sodipodi="http://sodipodi.sourceforge.net/DTD/sodipodi-0.dtd"
   xmlns:inkscape="http://www.inkscape.org/namespaces/inkscape"
   enable-background="new 0 0 48 48"
   height="30"
   id="Layer_1"
   version="1.1"
   viewBox="0 0 30 30"
   width="30"
   xml:space="preserve"
   sodipodi:docname="pen-pencil-icon.svg"
   inkscape:version="0.92.3 (2405546, 2018-03-11)"><metadata
     id="metadata9"><rdf:RDF><cc:Work
         rdf:about=""><dc:format>image/svg+xml</dc:format><dc:type
           rdf:resource="http://purl.org/dc/dcmitype/StillImage" /><dc:title></dc:title></cc:Work></rdf:RDF></metadata><defs
     id="defs7" /><sodipodi:namedview
     pagecolor="#ffffff"
     bordercolor="#666666"
     borderopacity="1"
     objecttolerance="10"
     gridtolerance="10"
     guidetolerance="10"
     inkscape:pageopacity="0"
     inkscape:pageshadow="2"
     inkscape:window-width="1920"
     inkscape:window-height="1001"
     id="namedview5"
     showgrid="false"
     inkscape:pagecheckerboard="true"
     inkscape:zoom="9.8333331"
     inkscape:cx="-4.4915367"
     inkscape:cy="19.158776"
     inkscape:window-x="-9"
     inkscape:window-y="-9"
     inkscape:window-maximized="1"
     inkscape:current-layer="Layer_1" /><path
     d="m 28.6611,3.8216251 c 0.0036,0.15379 -0.05066,0.30877 -0.167504,0.4262061 -0.02562,0.0252 -0.05721,0.03696 -0.08583,0.05663 l -1.603495,1.6034959 0.411305,0.4113066 c 0.02863,0.0196 0.06081,0.0315 0.08584,0.05663 0.116823,0.117425 0.171077,0.2724056 0.167503,0.4256111 0.0036,0.15379 -0.05067,0.3087706 -0.167503,0.4262061 -0.02502,0.0252 -0.05721,0.03696 -0.08584,0.05663 L 8.3110095,26.190091 c -0.066168,0.12698 -0.17108,0.23366 -0.311759,0.286721 L 2.15752,28.768202 c -0.03458,0.01855 -0.069741,0.03045 -0.1078947,0.04232 l -0.00714,0.003 c -0.00476,0.0019 -0.01015,5.83e-4 -0.014315,0.0023 -0.05544,0.01505 -0.1108731,0.0273 -0.1704817,0.02695 -0.058419,0.0019 -0.1126617,-0.0091 -0.1686933,-0.0245 -0.011935,-0.0035 -0.02324,-0.0012 -0.035767,-0.0053 -0.00476,-0.0019 -0.00777,-0.0059 -0.01253,-0.0077 -0.052455,-0.0196 -0.097759,-0.04945 -0.1430627,-0.08404 -0.02324,-0.0168 -0.047688,-0.0315 -0.067358,-0.05128 -0.01967,-0.0196 -0.03458,-0.0441 -0.051265,-0.06734 -0.03458,-0.0447 -0.063784,-0.09062 -0.084049,-0.143046 -0.00238,-0.0049 -0.00595,-0.0077 -0.00774,-0.0126 -0.00416,-0.0119 -0.00179,-0.0238 -0.00535,-0.03636 -0.01491,-0.05485 -0.02562,-0.109655 -0.02443,-0.16751 0,-0.05961 0.0119,-0.115045 0.02681,-0.17108 0.00238,-0.0049 5.95e-4,-0.0095 0.00238,-0.01365 l 0.00357,-0.0077 c 0.0119,-0.03755 0.02324,-0.07333 0.041727,-0.107905 L 3.6233021,22.100916 C 3.6769501,21.960216 3.7836514,21.85532 3.910621,21.78917 L 20.460024,5.2409259 C 20.302656,4.7437818 19.843065,4.3807612 19.293465,4.3807612 c -0.363021,0 -0.686104,0.160335 -0.910832,0.4107081 l -0.0019,-0.00117 -1.93731,1.937309 0.0019,0.00181 -4.075502,4.0754997 c -0.227111,0.227115 -0.595498,0.227115 -0.823207,0 -0.227112,-0.227115 -0.227112,-0.596093 0,-0.8232074 L 17.536775,3.99213 c 0.01012,-0.01015 0.02265,-0.01295 0.03336,-0.02205 0.434551,-0.4566106 1.043762,-0.7445247 1.723906,-0.7445247 0.864339,0 1.60886,0.4673416 2.02434,1.1576198 L 22.81697,2.8851797 c 0.01967,-0.028 0.0316,-0.0602 0.05662,-0.085225 0.117429,-0.117425 0.272416,-0.171675 0.426208,-0.16751 0.153797,-0.0042 0.308777,0.050085 0.426207,0.16751 0.02502,0.02485 0.03696,0.057225 0.05662,0.085225 L 24.19394,3.2964863 25.797434,1.692991 c 0.01967,-0.028 0.03161,-0.060201 0.05662,-0.085226 0.11743,-0.117425 0.272413,-0.171675 0.426208,-0.16751 0.153797,-0.0042 0.308777,0.050085 0.426208,0.16751 0.02502,0.0252 0.03696,0.057225 0.05662,0.085226 l 1.646415,1.6464123 c 0.02859,0.0196 0.0602,0.0315 0.08583,0.05663 0.115048,0.1174256 0.169291,0.2724056 0.165714,0.4256146 z M 2.9544995,27.146824 6.7552017,25.655392 4.4453329,23.345525 Z M 23.298628,4.0487366 5.0467931,22.30057 7.8001565,25.053933 26.051992,6.8020998 Z m 2.980475,-1.1921928 -1.263124,1.2631273 0.965078,0.9650778 1.263126,-1.2631238 z"
     id="path2"
     style="clip-rule:evenodd;fill:#ffffff;fill-opacity:1;fill-rule:evenodd;stroke:#130000;stroke-width:0.59609503;stroke-opacity:1"
     inkscape:connector-curvature="0" /></svg>