<?xml version="1.0" encoding="UTF-8" standalone="no"?>
<!-- Generator: Adobe Illustrator 18.1.1, SVG Export Plug-In . SVG Version: 6.00 Build 0)  -->

<svg
   xmlns:dc="http://purl.org/dc/elements/1.1/"
   xmlns:cc="http://creativecommons.org/ns#"
   xmlns:rdf="http://www.w3.org/1999/02/22-rdf-syntax-ns#"
   xmlns:svg="http://www.w3.org/2000/svg"
   xmlns="http://www.w3.org/2000/svg"
   xmlns:sodipodi="http://sodipodi.sourceforge.net/DTD/sodipodi-0.dtd"
   xmlns:inkscape="http://www.inkscape.org/namespaces/inkscape"
   version="1.1"
   id="Capa_1"
   x="0px"
   y="0px"
   viewBox="0 0 135.467 135.467"
   xml:space="preserve"
   sodipodi:docname="icon.svg"
   width="135.467"
   height="135.467"
   inkscape:version="0.92.3 (2405546, 2018-03-11)"><metadata
   id="metadata45"><rdf:RDF><cc:Work
       rdf:about=""><dc:format>image/svg+xml</dc:format><dc:type
         rdf:resource="http://purl.org/dc/dcmitype/StillImage" /><dc:title></dc:title></cc:Work></rdf:RDF></metadata><defs
   id="defs43" /><sodipodi:namedview
   pagecolor="#ffffff"
   bordercolor="#666666"
   borderopacity="1"
   objecttolerance="10"
   gridtolerance="10"
   guidetolerance="10"
   inkscape:pageopacity="0"
   inkscape:pageshadow="2"
   inkscape:window-width="1920"
   inkscape:window-height="1001"
   id="namedview41"
   showgrid="false"
   inkscape:zoom="2.8284271"
   inkscape:cx="39.292961"
   inkscape:cy="67.611685"
   inkscape:window-x="-9"
   inkscape:window-y="-9"
   inkscape:window-maximized="1"
   inkscape:current-layer="layer2"
   inkscape:pagecheckerboard="true" />
<g
   id="g8"
   transform="translate(0,121.99802)">
	<g
   id="g6">
		
		
	</g>
</g>
<g
   id="g10"
   transform="translate(0,121.99802)">
</g>
<g
   id="g12"
   transform="translate(0,121.99802)">
</g>
<g
   id="g14"
   transform="translate(0,121.99802)">
</g>
<g
   id="g16"
   transform="translate(0,121.99802)">
</g>
<g
   id="g18"
   transform="translate(0,121.99802)">
</g>
<g
   id="g20"
   transform="translate(0,121.99802)">
</g>
<g
   id="g22"
   transform="translate(0,121.99802)">
</g>
<g
   id="g24"
   transform="translate(0,121.99802)">
</g>
<g
   id="g26"
   transform="translate(0,121.99802)">
</g>
<g
   id="g28"
   transform="translate(0,121.99802)">
</g>
<g
   id="g30"
   transform="translate(0,121.99802)">
</g>
<g
   id="g32"
   transform="translate(0,121.99802)">
</g>
<g
   id="g34"
   transform="translate(0,121.99802)">
</g>
<g
   id="g36"
   transform="translate(0,121.99802)">
</g>
<g
   id="g38"
   transform="translate(0,121.99802)">
</g>
<g
   inkscape:groupmode="layer"
   id="layer1"
   inkscape:label="Layer 1"
   style="display:inline"
   transform="translate(0,121.99802)"><rect
     style="opacity:1;fill:#2b2929;fill-opacity:1;stroke:#2b2929;stroke-width:25.14422035;stroke-linejoin:round;stroke-miterlimit:4;stroke-dasharray:none;stroke-opacity:1"
     id="rect871"
     width="100.45734"
     height="102.68974"
     x="18.264973"
     y="-105.45627" /></g><g
   inkscape:groupmode="layer"
   id="layer2"
   inkscape:label="Layer 2"
   style="display:inline"
   transform="translate(0,121.99802)"><polygon
     style="fill:#ffffff;fill-opacity:1"
     points="9.59,4.059 9.59,2.952 4.297,2.952 4.297,4.393 7.734,4.393 7.734,4.417 4.643,10.447 6.5,10.447 "
     id="polygon4"
     transform="matrix(10.057688,0,0,10.057688,0,-121.998)" /><path
     style="fill:#2b2929;fill-opacity:1;stroke:none;stroke-width:10.05768776;stroke-opacity:1"
     d="M 123.83025,-121.998 H 11.65686 C 5.2299978,-121.998 0,-116.768 0,-110.3512 V 1.8221973 C 0,8.2490599 5.2299978,13.469 11.65686,13.469 h 112.17339 c 6.41681,0 11.63675,-5.2299978 11.63675,-11.6468027 V -110.3512 c 0,-6.4168 -5.21994,-11.6468 -11.63675,-11.6468 z m 1.65952,123.8201973 c 0,0.9152496 -0.74427,1.6595185 -1.65952,1.6595185 H 11.65686 c -0.915249,0 -1.6695758,-0.7442689 -1.6695758,-1.6595185 V -110.3512 c 0,-0.91525 0.7543268,-1.65952 1.6695758,-1.65952 h 112.17339 c 0.91525,0 1.65952,0.74427 1.65952,1.65952 z"
     id="path2"
     inkscape:connector-curvature="0" /></g></svg>